<svg xmlns="http://www.w3.org/2000/svg" xmlns:xlink="http://www.w3.org/1999/xlink" viewBox="0 0 820 555"><defs><style>.cls-1,.cls-41{fill:#949393;}.cls-1,.cls-10,.cls-11,.cls-12,.cls-13,.cls-14,.cls-2,.cls-27,.cls-28,.cls-31,.cls-34,.cls-37,.cls-38,.cls-4,.cls-40,.cls-5,.cls-6,.cls-7{fill-rule:evenodd;}.cls-2{fill:gray;}.cls-14,.cls-3{fill:#fff;}.cls-15,.cls-21,.cls-4{fill:#e8e8e8;}.cls-5{fill:#b0b0b0;}.cls-6{fill:#bdbec0;}.cls-7{fill:#b3b3b2;}.cls-8{fill:#b3b3b3;}.cls-10,.cls-9{fill:#9b9b9b;}.cls-11{fill:#c0bfbf;}.cls-12,.cls-24{fill:#636464;}.cls-13{fill:#c9c9c8;}.cls-16,.cls-38{fill:#328fa5;}.cls-17,.cls-28{fill:#49aac1;}.cls-18{fill:#e0dad8;}.cls-19{fill:#a5a5a5;}.cls-19,.cls-20{stroke:#858585;}.cls-19,.cls-20,.cls-21,.cls-22,.cls-26{stroke-linecap:round;}.cls-19,.cls-20,.cls-21,.cls-22,.cls-23,.cls-26{stroke-linejoin:round;}.cls-19,.cls-20,.cls-23,.cls-26{stroke-width:2.7px;}.cls-20{fill:#858585;}.cls-21,.cls-22{stroke:#c0c2c4;stroke-width:2px;}.cls-22{fill:#c0c2c4;}.cls-23,.cls-26{fill:none;stroke:#b2afaf;}.cls-25{fill:#3c3835;}.cls-27,.cls-39{fill:#46a4b2;}.cls-29,.cls-37{fill:#3d9ab3;}.cls-30{fill:#4d5250;}.cls-31{fill:#85d3e6;}.cls-32{fill:#c4e9f7;}.cls-33{fill:#708a96;}.cls-34{fill:#7ecee9;}.cls-35{fill:#aee2f8;}.cls-36{fill:#93d9f8;}.cls-40{fill:url(#linear-gradient);}.cls-42{fill:url(#linear-gradient-2);}</style><linearGradient id="linear-gradient" x1="353.56" y1="372.19" x2="381.28" y2="411.77" gradientTransform="matrix(.98 .27 -.39 .91 197.97 -242.93)" gradientUnits="userSpaceOnUse"><stop offset="0" stop-color="#dddddc"/><stop offset="1" stop-color="#fff"/></linearGradient><linearGradient id="linear-gradient-2" x1="661.85" y1="215.2" x2="188.92" y2="215.2" xlink:href="#linear-gradient"/></defs><title>SeaGradient_Dark</title><g id="ISS"><g id="Main_Compartment"><g id="Center"><path id="Base" class="cls-1" d="M365.26 204.2v47.37c2.11 11 14.88 19.36 29.94 19.36 16.54 0 29.94-10.15 29.94-22.67v-44.06h-59.88z"/><path id="BottomShadow" class="cls-2" d="M425.14 248.26v-35l-20.95 12.6s0 14.26-9 21.84c-11.94 10.06.31 14.74.31 14.74s3 5.18 4.9 8.17c14.06-1.91 24.74-11.18 24.74-22.35z"/><ellipse id="TopHighlight" class="cls-3" cx="395.2" cy="204.2" rx="29.94" ry="22.67"/><path id="Top" class="cls-4" d="M425.14 204.2c0-6.87-4-13-10.42-17.18a37.21 37.21 0 0 0-15.64-3.34c-16.54 0-29.94 10.15-29.94 22.67 0 6.87 4 13 10.42 17.18a37.21 37.21 0 0 0 15.64 3.34c16.53 0 29.94-10.15 29.94-22.67z"/><path id="Top_Shadow" class="cls-5" d="M408 213.33a14.75 14.75 0 0 1 8.69 6.62c5.21-4.08 8.43-9.62 8.43-15.74 0-5.88-3-11.24-7.81-15.26h-4.31s-8.9-8.37-5.81 7.31a62.85 62.85 0 0 1 .81 17.07z"/></g><g id="Bottom"><path id="Base-2" class="cls-4" d="M267.6 216.93c-5.6-2.5-14.5-.93-22.6 5.07-12.35 9.22-16.27 23.35-14.32 33.45a9.73 9.73 0 0 0 3.49 6.06l.11.07a8.62 8.62 0 0 0 1 .66l170.12 117.31 21.6-30.8 14.6-16.55z"/><path id="Band10" class="cls-6" d="M317.6 250c-4 .19-8.68 1.94-13.5 5.41-12.52 9-21.29 26-19.6 38a16.44 16.44 0 0 0 .85 3.41l4.2 2.9a14.66 14.66 0 0 1-1.53-4.86c-1.64-11.56 6.82-28 18.9-36.71 5.48-4 10.77-5.63 15.06-5.2z"/><path id="Band9" class="cls-6" d="M242.78 264.27c-1.64-11.37 6.82-27.54 18.9-36.11 5.73-4.06 10.91-5.67 15.3-5l-4.47-3c-4.13.07-8.64 1.8-13.66 5.35-12.52 8.86-21.29 25.58-19.6 37.34a20.35 20.35 0 0 0 .51 2.52l4 2.75a17.27 17.27 0 0 1-.98-3.85z"/><path id="Band8" class="cls-6" d="M277.67 287.74c-1.64-11.51 6.82-27.86 18.9-36.53 5.44-3.9 10.68-5.57 14.95-5.18l-4.35-2.88c-4 .21-8.63 1.94-13.43 5.38-12.52 9-21.29 25.88-19.6 37.78a16.34 16.34 0 0 0 .83 3.33l4.2 2.9a14.57 14.57 0 0 1-1.5-4.8z"/><path id="Band7" class="cls-6" d="M251.48 269.6c-1.64-11.47 6.82-27.78 18.9-36.42 5-3.58 9.83-5.27 13.9-5.22l-4.18-2.77c-3.79.4-8.1 2.14-12.54 5.31-12.52 8.94-21.29 25.8-19.6 37.66a16.2 16.2 0 0 0 .87 3.45l4.23 2.92a14.42 14.42 0 0 1-1.58-4.93z"/><path id="Band6" class="cls-6" d="M408.83 310.61c-4.23 0-9.22 1.82-14.38 5.52-12.76 9.14-21.7 26.37-20 38.49a15.77 15.77 0 0 0 1.41 4.75l4.76 3.27a13.72 13.72 0 0 1-2.58-6.55c-1.67-11.73 6.95-28.39 19.26-37.22 6-4.28 11.69-5.92 16.2-5.16z"/><path id="Shadow2" class="cls-7" d="M386.65 324.18l27.3 16.09s16.09-14.21 25.89-9.41l-29.09-19.1z"/><path id="Shadow" class="cls-8" d="M366.91 283.87l-29.91 22.76.11.18c4.69-1.93 12.67-2.6 24.71 4.34 19.61 11.31 24.83 13 24.83 13s-.45-26 9.36-21.22z"/><path id="Band5" class="cls-6" d="M358 292.34c-12.76 9-21.7 26.06-20 38a16.33 16.33 0 0 0 .83 3.3l4.29 3a14.56 14.56 0 0 1-1.53-4.8c-1.67-11.59 6.95-28.06 19.26-36.79 6-4.23 11.69-5.85 16.2-5.1l-4.7-3.06c-4.19.03-9.18 1.79-14.35 5.45z"/><path id="Band4" class="cls-6" d="M383.37 293.05c-4.23 0-9.22 1.82-14.38 5.5-12.76 9.11-21.7 26.29-20 38.37a15.69 15.69 0 0 0 1.41 4.74l4.76 3.26a13.66 13.66 0 0 1-2.58-6.53c-1.67-11.69 6.95-28.3 19.26-37.11 6-4.26 11.69-5.9 16.2-5.15z"/><path id="Band3" class="cls-9" d="M371.58 286.93c-4.05.24-8.73 2-13.57 5.41a50.54 50.54 0 0 0-12.6 13.22 26.71 26.71 0 0 1 4.44.65 48.09 48.09 0 0 1 11-11.16c5.48-3.89 10.76-5.57 15.09-5.23l-.26-.17-3.66-2.4z"/><path id="Band2" class="cls-6" d="M421 318.72c-4.23 0-9.22 1.83-14.38 5.55-12.76 9.18-21.7 26.5-20 38.67a15.91 15.91 0 0 0 1.41 4.77l4.76 3.28a13.82 13.82 0 0 1-2.58-6.58c-1.67-11.78 6.95-28.52 19.26-37.4 6-4.3 11.69-5.95 16.2-5.19z"/><path id="End" class="cls-2" d="M445.2 339.85c1.64 11.57-6.85 28-19 36.75s-23.28 6.42-24.92-5.16 6.85-28 19-36.75 23.28-6.42 24.92 5.16z"/><path id="Band" class="cls-10" d="M406.62 324.27a47.89 47.89 0 0 0-7.79 7.1l3.54 2.09a45.91 45.91 0 0 1 7.13-6.46c6-4.3 11.69-5.95 16.2-5.19l-4.7-3.11c-4.23.06-9.22 1.85-14.38 5.57z"/><path id="Band13" class="cls-9" d="M371.86 301.29c4.82-3.45 9.49-5.18 13.49-5.31l-1.49-1-1.06-.7-1.61-1.06a28.16 28.16 0 0 0-12.2 5.32 49.62 49.62 0 0 0-10.76 10.7c1.16.56 2.36 1.18 3.6 1.9a47.68 47.68 0 0 1 10.03-9.85z"/><path id="Band12" class="cls-10" d="M397.33 318.87l1.07-.74-11.75 6.06 3 1.74a46.28 46.28 0 0 1 7.68-7.06z"/><path id="Band11" class="cls-10" d="M405 314.73a17.06 17.06 0 0 1 8.54-1l-2.88-1.9z"/></g><g id="MiddleCompartment"><path id="Base-3" class="cls-4" d="M386.53 237.91c-15.8-12.51-21.89-9.26-21.89-9.26l-97.64 69.35s9.09 1.32 21.69 11.95l14.51 22.48 94.68-71.75s3.01-11.4-11.35-22.77z"/><path id="Shadow-2" class="cls-11" d="M302.84 332.73l95-71.69c.29-1.54 1.21-6.74-2.63-13.37-19.53 16.84-97.77 74.73-97.77 74.73s4.95 8.6 5.4 10.33z"/><path id="End2" class="cls-12" d="M303 332.75c-4 3.29-15.34-4.09-25.36-13.71s-14.87-17.83-10.87-21.12 15.34 1.84 25.35 11.46 14.88 20.08 10.88 23.37z"/><path id="Band4-2" class="cls-6" d="M344.28 269.68c-6.64-6.38-13.8-10.95-19.42-12.81l-4.16 2.95c5.93 2 13.39 6.77 20.31 13.33 7.44 7 12.45 14.48 14 20l2.81-2.13c-.43-5.33-5.47-13.58-13.54-21.34z"/><path id="Band3-2" class="cls-6" d="M335.12 278.86c-7.78-7.47-16.28-12.47-22.17-13.52l-4.1 2.91c6.26 1.33 15 6.49 23 14.09 6.66 6.31 11.38 12.92 13.38 18.18l3.06-2.32c-1.29-5.26-6.05-12.5-13.17-19.34z"/><path id="Band2-2" class="cls-5" d="M355 293.12l2.81-2.13c-.22-2.84-1.77-6.53-4.4-10.53l-3.57 2.71a33.51 33.51 0 0 1 5.16 9.95z"/><path id="Band-2" class="cls-5" d="M348.3 298.19a31.54 31.54 0 0 0-5.08-10l-3.62 2.73a40.22 40.22 0 0 1 5.64 9.62z"/><path id="EndBase" class="cls-13" d="M288.78 312.37c-7.47-7.17-15.93-11-18.93-8.57v.09a2.74 2.74 0 0 0-1 1.71l-8 14.39 17.73 17 17-6.65a2.57 2.57 0 0 0 1.39-.54c2.93-2.44-.71-10.25-8.19-17.43z"/><path id="EndHighlight" class="cls-14" d="M260.42 320.39l9.51-17c4.27-2.88 15.62 5.17 21 11.17-6.25-3.8-14.26-9.89-20.4-7.35z"/><path id="End-2" class="cls-12" d="M278.52 337c-2 1.61-7.51-.9-12.41-5.61s-7.28-9.83-5.32-11.44 7.51.9 12.41 5.61 7.28 9.84 5.32 11.44z"/><path id="Highlight" class="cls-14" d="M267.09 297.67l97.55-69.09c2.38-1.61 9.2.7 13.95 3.8a12.08 12.08 0 0 0-10.93-1l-93.72 66.21a12.14 12.14 0 0 0-5.27-.53 7.38 7.38 0 0 0-1.58.61z"/><path id="FrontShadow" class="cls-5" d="M278.52 337l18.75-7.21c2-2.62-.93-7.8-.93-7.8l-18 10.4s1.46 2.84.18 4.61z"/></g><g id="Top-2"><path id="Base-4" class="cls-1" d="M361.2 272.22v36.89c1.79 8.53 12.65 15.08 25.45 15.08 14.05 0 25.45-7.9 25.45-17.65v-34.32h-50.9z"/><path id="Drk_Side_Shad" class="cls-2" d="M395.2 288.55a123.94 123.94 0 0 1-4.2 23.68c-3.41 11.71-5.46 12-4.37 12 14.05 0 25.45-7.56 25.45-16.88v-37.45z"/><path id="Middle" class="cls-4" d="M386.65 301.47c-12.8 0-23.66-6.26-25.45-14.41v11.1c1.79 8.16 12.65 14.41 25.45 14.41 14.05 0 25.45-7.56 25.45-16.88v-11.1c0 9.32-11.4 16.88-25.45 16.88z"/><path id="Side_Shad" class="cls-13" d="M393.64 300.83a103.21 103.21 0 0 1-2.64 11.54c12.19-1.25 21.14-8.24 21.14-16.68v-11.1c-.04 7.58-8.51 13.81-18.5 16.24z"/><ellipse id="Top-3" class="cls-15" cx="386.72" cy="270.77" rx="25.37" ry="19.21"/><path id="Highlight-2" class="cls-14" d="M364 273.41c0-10.61 11.36-19.21 25.37-19.21a29.51 29.51 0 0 1 18.7 6.23c-4.51-5.33-12.4-8.87-21.38-8.87-14 0-25.37 8.6-25.37 19.21 0 5 2.53 9.56 6.67 13a15.94 15.94 0 0 1-3.99-10.36z"/></g></g><g id="BottomPanel"><path id="Base-5" class="cls-16" d="M420.33 105.05l16.55-10.62 163.05 81.07-17.12 11.41-162.48-81.86z"/><path id="Highlight-3" class="cls-17" d="M421.23 105.47l16.03-10.85 62.78 31.21-78.81-20.36z"/><path id="Bar2" class="cls-18" d="M439 93.21a1 1 0 0 1-.31.34l-19 12.84a1 1 0 0 1-1.39-.23.93.93 0 0 1 .23-1.33l19-12.84a1 1 0 0 1 1.39.23.92.92 0 0 1 .08.99z"/><path id="Bar1" class="cls-18" d="M601.27 175.66a1 1 0 0 1-.31.34l-19 12.84a1 1 0 0 1-1.39-.23.93.93 0 0 1 .23-1.33l19-12.84a1 1 0 0 1 1.39.23.92.92 0 0 1 .08.99z"/></g><g id="Dangles"><path class="cls-19" d="M524.45 289.02l-1.65 10.78 14.86 7.42 1.69-11.08-14.9-7.12zM524.35 306.77l-1.64 10.78 14.86 7.42 1.69-11.09-14.91-7.11zM524.28 324.39l-1.65 10.78 14.86 7.42 1.69-11.09-14.9-7.11zM524.19 342.08l-1.64 10.78 14.86 7.42 1.69-11.09-14.91-7.11z"/><path class="cls-20" d="M522.8 299.8l1.55 6.97 14.91 7.11-1.6-6.66-14.86-7.42zM522.72 317.49l1.54 6.97 14.91 7.11-1.59-6.66-14.86-7.42zM522.64 335.15l1.54 6.97 14.91 7.11-1.59-6.66-14.86-7.42z"/><path class="cls-19" d="M603.7 337.42l-1.65 10.78 14.86 7.42 1.69-11.09-14.9-7.11zM603.6 355.17l-1.64 10.78 14.86 7.41 1.69-11.08-14.91-7.11zM603.53 372.78l-1.64 10.78 14.86 7.42 1.68-11.08-14.9-7.12zM603.44 390.48l-1.64 10.78 14.86 7.41 1.69-11.08-14.91-7.11z"/><path class="cls-20" d="M602.05 348.2l1.55 6.97 14.91 7.11-1.6-6.66-14.86-7.42zM601.97 365.88l1.55 6.97 14.9 7.11-1.59-6.66-14.86-7.42zM601.89 383.55l1.54 6.96 14.91 7.12-1.59-6.67-14.86-7.41z"/><path class="cls-21" d="M263.85 129.82v9.5l12.4 6.53v-9.76l-12.4-6.27zM265.87 145.45v9.5l12.41 6.53v-9.76l-12.41-6.27zM267.89 160.97v9.49l12.41 6.53v-9.76l-12.41-6.26zM269.92 176.55v9.49l12.4 6.54v-9.77l-12.4-6.26z"/><path class="cls-22" d="M263.85 139.32l2.02 6.13 12.41 6.27-2.03-5.87-12.4-6.53zM265.87 154.89l2.02 6.14 12.41 6.26-2.02-5.87-12.41-6.53zM267.89 170.45l2.03 6.14 12.4 6.26-2.02-5.87-12.41-6.53z"/><path class="cls-21" d="M215.45 98.93v9.49l12.41 6.54v-9.76l-12.41-6.27zM217.47 114.56v9.5l12.41 6.53v-9.76l-12.41-6.27zM219.5 130.08v9.49l12.4 6.53v-9.76l-12.4-6.26zM221.52 145.66v9.49l12.41 6.53v-9.76l-12.41-6.26z"/><path class="cls-22" d="M215.45 108.42l2.02 6.14 12.41 6.27-2.02-5.87-12.41-6.54zM217.47 124l2.03 6.14 12.4 6.26-2.02-5.87-12.41-6.53zM219.5 139.56l2.02 6.13 12.41 6.27-2.03-5.87-12.4-6.53z"/></g><g id="ZigZagPieces"><g id="Right"><path id="ZigZagOutline" class="cls-23" d="M510 228.14l7.32-8.94v-15.2l-7.32 9v15.18zm8.67-9.91l10-2.18v-15.17l-10 2.18v15.18zm-8.67-6.93l7.32-8.94v-16.53l-7.32 8.94v16.53zm-11.37 20l10-2.18v-15.19l-10 2.18v15.18zm0-35l10-2.18v-16.58l-10 2.18v16.53zm11.37-3.2l7.32-8.94v-16.52l-7.32 8.93v16.53zm-11.37 21.34l10-2.18v-16.52l-10 2.18v16.53zm20-31.25l10-2.18v-16.52l-10 2.18v16.53zm-28.7 23l7.32-8.94v-16.56l-7.25 8.94v16.53zm28.7-4.76l10-2.18v-16.57l-10 2.18v16.53zm11.37 13.7l7.32-8.94v-15.19l-7.32 8.94v15.18zm0-16.84l7.32-8.94v-16.57l-7.32 8.94v16.53zm-51.43 46.1l10-2.18v-15.21l-10 2.18v15.18zm60.09-39.16l10-6.23v-15.23l-10 6.23v15.18zm0-16.84l10-6.23v-16.58l-10 6.23v16.53zm-68.66 62.27l3.34 2.53 4-7.88v-15.18l-7.34 10.29v10.24zm60.09-87.15v16.53l7.32-8.94v-16.52l-1.91 2.34zm8.67-9.91v16.53l10-6.23v-16.52zm-60.12 73.9l10-2.18v-16.53l-10 2.18v16.53zm11.36 13.7l7.32-8.94v-15.18l-7.32 8.92v15.2zm0-16.84l7.32-8.94v-16.53l-7.32 8.93v16.53zm-11.37-31.58v16.53l10-2.18v-16.53l-.44.31zm-8.67 46l7.32-10.29v-16.55l-7.28 10.29v16.53zm.04-34.78v16.53l7.32-10.29v-16.5l-7.09 10.12z"/><path id="ZigZag" class="cls-15" d="M470 250.66l3.34 2.53 4-7.88v-15.18l-7.34 10.29v10.24zm20-9.47l7.32-8.94v-15.17l-7.32 8.92v15.2zm0-16.84l7.32-8.94v-16.52l-7.32 8.93v16.53zm8.67 6.94l10-2.18v-15.18l-10 2.18v15.18zm0-16.84l10-2.18v-16.53l-10 2.18v16.53zm-8.67-8.29l7.32-8.94v-16.53l-7.32 8.94v16.53zm8.67-9.91l10-2.18v-16.53l-10 2.18v16.53zm-28.67 7.75v16.53l7.32-10.29v-16.5l-7.09 10.12zm8.67 40.31l10-2.18v-15.13l-10 2.18v15.18zm0-51.57v16.53l10-2.18v-16.49l-.44.31zm0 34.73l10-2.18v-16.5l-10 2.18v16.53zm-8.67 11.29l7.32-10.29v-16.53l-7.32 10.29v16.53zm40-10.62l7.32-8.94v-15.2l-7.32 9v15.18zm20-29.9l7.32-8.94v-16.52l-7.32 8.94v16.53zm8.67 6.94l10-6.23v-15.18l-10 6.23v15.18zm-8.67 9.91l7.32-8.94v-15.15l-7.32 8.94v15.18zm8.67-61.48v16.53l10-6.23v-16.53zm0 34.73l10-6.23v-16.53l-10 6.23v16.53zm-8.67-24.82v16.53l7.32-8.94v-16.53l-1.91 2.34zm-20 47.78l7.32-8.94v-16.53l-7.32 8.94v16.53zm0-18.2l7.32-8.94v-16.52l-7.32 8.93v16.53zm8.67 25.13l10-2.18v-15.17l-10 2.18v15.18zm0-35l10-2.18v-16.56l-10 2.18v16.53zm0 18.2l10-2.18v-16.57l-10 2.18v16.53z"/><path id="Base-6" class="cls-24" d="M456.86 197.33l21.79 11.3v62.03l-21.79-14.52v-58.81z"/><path id="Side" class="cls-25" d="M481.36 269.31l-2.71 1.35v-62.03l2.71-1.35v62.03z"/><path id="Top-4" class="cls-25" d="M456.86 197.33l2.79-1.28 21.71 11.23-2.71 1.35-21.79-11.3z"/></g><g id="Left"><path id="ZigZagOutline-2" class="cls-26" d="M361.95 156.06l7.19-8.93v-17.54l-7.19 8.93v17.54zm0-19.14l7.19-8.93v-16.23l-7.19 8.62v16.55zm0 38.27l7.19-9v-17.46l-7.19 8.93v17.54zm8.54-9.9l11.24-3.63v-17.3l-11.24 3.52v17.42zm0-19l11.24-3.52v-17.55l-11.24 3.52v17.54zm-9.88 12.22l-12.59.82v10l7.35 6.57 6-.27h-.77v-17.12zm-22.47-10.13l8.54-8.93v-16.94l-8.54 8.62v17.24zm22.47-9l-12.59.82v17.54l12.59-.82v-17.55zm0-18.18l-12.61.5v16.9l12.59-.82v-16.59zm-22.47 43.56l2.17 1.4 6.37-7.56v-17.6l-8.55 9v14.78zm32.36-37.6l11.24-3.52v-15.9l-11.25 3.26v16.2zm-23.82 41.26v-8.23l-5.13 6.81zm67.41-31.89l9.9-3.64v-16.89l-9.9 3.53v16.94zm-9.89-8.76l8.54-8.93v-17.55l-8.54 8.93v17.54zm0-19.14l8.54-8.93v-14.84l-8.54 8.62v15.15zm0 37.79l8.54-9v-17l-8.54 8.93v17.06zm-21.12 14.39l7.19-9v-17.2l-7.19 8.93v17.3zm31-76.76v14.8l9.9-3.53v-14.5zm0 33.94l9.9-3.53v-17.55l-9.9 3.53v17.56zm-31 23.93l7.19-8.93v-17.55l-7.19 8.93v17.54zm0-19.14l7.19-8.93v-15.54l-7.19 8.62v15.85zm8.54 28.14l11.24-3.63v-17.08l-11.24 3.52v17.18zm0-18.78l11.24-3.52v-17.55l-11.24 3.52v17.54zm0-19.14l11.24-3.52v-15.2l-11.25 3.22v15.5z"/><path id="ZigZag-2" class="cls-15" d="M361.95 136.93l7.19-8.93v-16.24l-7.19 8.62v16.55zm0 19.14l7.19-8.93v-17.55l-7.19 8.93v17.54zm0 19.14l7.19-9v-17.48l-7.19 8.93v17.54zm8.54-9.9l11.24-3.63v-17.32l-11.24 3.52v17.42zm0-19l11.24-3.52v-17.57l-11.24 3.52v17.54zm-9.88 12.22l-12.59.82v10l7.35 6.57 6-.27h-.77v-17.14zm0-19.14l-12.59.82v17.54l12.59-.82v-17.56zm-13.94 29v-8.23l-5.12 6.84zm23.82-41.26l11.24-3.52v-15.87l-11.24 3.26v16.2zm-9.88-6l-12.61.57v16.9l12.59-.82v-16.59zm-22.47 27.19l8.54-8.93v-16.88l-8.54 8.62v17.24zm0 16.37l2.17 1.4 6.37-7.56v-17.53l-8.55 9v14.78zm44.94-42l7.19-8.93v-15.45l-7.19 8.62v15.85zm21.12 5l8.54-8.93v-17.47l-8.54 8.93v17.54zm0-19.14l8.54-8.93v-14.76l-8.54 8.62v15.15zm9.89 27.9l9.9-3.64v-16.81l-9.9 3.53v16.94zm0-18.54l9.9-3.53v-17.47l-9.9 3.53v17.56zm0-33.94v14.8l9.9-3.53v-14.42zm-22.47 48.09l11.24-3.52v-17.47l-11.24 3.52v17.54zm0 18.78l11.24-3.63v-17l-11.24 3.52v17.18zm-8.54-9l7.19-8.93v-17.47l-7.19 8.93v17.54zm8.53-28.84l11.24-3.52v-15.2l-11.24 3.22v15.5zm-8.54 47.81l7.19-9v-17.2l-7.19 8.93v17.3zm21.12-14.39l8.54-9v-17l-8.54 8.93v17.06z"/><path id="Base-7" class="cls-24" d="M327.15 126.98l21.79 10.09v55.43l-21.79-12.97v-52.55z"/><path id="Side-2" class="cls-25" d="M351.65 191.29l-2.71 1.21v-55.43l2.71-1.21v55.43z"/><path id="Top-5" class="cls-25" d="M327.15 126.98l2.79-1.15 21.71 10.03-2.71 1.21-21.79-10.09z"/></g></g><g id="Panels"><g id="BottomRight"><g id="Highlights"><path id="Highlight4" class="cls-27" d="M635.01 369.65l-164.11 154.98 25.18 19.8 163.31-160.24-24.38-14.54z"/><path id="Highlight3" class="cls-27" d="M598.98 348.2l-166.79 147.59 25.18 19.8 165.98-152.85-24.37-14.54z"/><path id="Highlight2" class="cls-28" d="M549.82 316.63l-166.8 139.3 25.65 19.88 168.45-142.97-27.3-16.21z"/><path id="Highlight-4" class="cls-28" d="M511.83 293.82l-168.36 131.85 25.18 19.81 167.55-137.12-24.37-14.54z"/></g><g id="Base-8"><path id="Base4" class="cls-29" d="M373.38 441.55l-25.81-19.09 90.58-70.93 18.74 21.16-83.51 68.86z"/><path id="Base3" class="cls-29" d="M413.15 471.88l-25.74-19.61 80.36-67.12 20.54 23.02-75.16 63.71z"/><path id="Base2" class="cls-16" d="M462.7 509.9l-24.84-19.13 69.37-61.39 19.24 21.88-63.77 58.64z"/><path id="Base-9" class="cls-16" d="M500.89 538.94l-24.68-19.32 60.35-56.82 19.25 21.88-54.92 54.26z"/></g><g id="Sides"><path id="Side4" class="cls-30" d="M657.99 385.31l1.02.75-161.63 158.39-1.14-1.07 161.75-158.07z"/><path id="Side3" class="cls-30" d="M621.57 363.7l1.03.76-162.98 150.28-1.14-1.06 163.09-149.98z"/><path id="Side2" class="cls-30" d="M575.71 334l1.03.75-165.68 140.83-1.14-1.06 165.79-140.52z"/><path id="Side-3" class="cls-30" d="M535.2 308.34l1.03.76-165.68 136.77-1.14-1.06 165.79-136.47z"/></g><g id="Bars"><path class="cls-18" d="M577.92 335.37a2 2 0 0 1-.92-.28l-71.22-43.39a2.17 2.17 0 0 1-.75-2.92 2 2 0 0 1 2.82-.79l71.22 43.39a2.17 2.17 0 0 1 .75 2.92 2 2 0 0 1-1.9 1.07zM411.14 479.73a2 2 0 0 1-.89-.38l-68.49-53a2.17 2.17 0 0 1-.42-3 2 2 0 0 1 2.89-.47l68.49 53a2.17 2.17 0 0 1 .42 3 2 2 0 0 1-2 .85zM508.27 555a2 2 0 0 1-.89-.38l-76.76-60.15a2.17 2.17 0 0 1-.42-3 2 2 0 0 1 2.89-.47l76.76 60.15a2.17 2.17 0 0 1 .42 3 2 2 0 0 1-2 .85zM667 390.55a2 2 0 0 1-.92-.28l-71.22-43.39a2.17 2.17 0 0 1-.75-2.92 2 2 0 0 1 2.82-.79l71.22 43.39a2.17 2.17 0 0 1 .75 2.92 2 2 0 0 1-1.9 1.07zM645.76 352.6a2.41 2.41 0 0 0-3.73-.34l-12.36 13.11c2.09.47 3 2.74 5 3.67l11.13-12.13a2.8 2.8 0 0 0 .64-1.16 3.56 3.56 0 0 0-.68-3.15zM555.94 298.56a2.41 2.41 0 0 0-3.69-.61l-13.25 12.16c2 .63 2.78 3 4.68 4l12-11.27a2.8 2.8 0 0 0 .73-1.11 3.56 3.56 0 0 0-.47-3.17z"/></g></g><g id="BottomLeft"><path class="cls-31" d="M167.22 81.81l-162.25 79.38 16.55 11.96 161.67-82.7-15.97-8.64zM188.73 93.77l-164.8 83.35 14.42 8.6 165.67-83.91-15.29-8.04z"/><path class="cls-32" d="M163.11 106.73l-3.8 17.67 39.7-20.13-13.88-8.68-22.02 11.14zM163.11 100.07l16.21-8.14-12.86-7.91-3.35 16.05zM138.79 134.84l4.1-17.89-101.14 51.15-5.65 11.79 5.73 4.06 96.96-49.11zM46.22 158.78l98.42-49.43 4.26-18.59-91.56 44.79-11.12 23.23z"/><path class="cls-33" d="M202.96 102.22l2.57 1.67-164.62 83.14-2.68-1.31 164.73-83.5zM182.93 90.06l2.37 1.68-163.28 81.79-2.67-1.31 163.58-82.16z"/><path class="cls-18" d="M208.53 106.79a2 2 0 0 1-.9-.28l-40.71-24.3a2 2 0 0 1 2.08-3.48l40.7 24.27a2 2 0 0 1-1.17 3.79zM200.25 84.4a2 2 0 0 0-2.74-.82l-14.05 7.62a24.23 24.23 0 0 1 4.19 2.34l11.79-6.39a2 2 0 0 0 .81-2.75zM249.69 115.26a2 2 0 0 0-2.74-.82l-14.05 7.62a24.23 24.23 0 0 1 4.19 2.34l11.79-6.4a2 2 0 0 0 .81-2.74zM39.19 189.82a2 2 0 0 1-.86-.39l-37.54-29a2 2 0 0 1 2.47-3.21l37.54 29a2 2 0 0 1-1.61 3.6z"/><path class="cls-34" d="M215.22 111.8l-164.33 85.86 16.76 12.94 163.74-89.46-16.17-9.34zM237 124.73l-165.7 89.52 14.75 11.3 169.14-89.42-18.19-11.4z"/><path class="cls-33" d="M254.31 136.57l3.75.46-169.42 89.94-2.71-1.42 168.38-88.98zM231.13 120.72l2.4 1.81-165.37 88.48-2.7-1.42 165.67-88.87z"/><path class="cls-18" d="M257.06 138.82a1.94 1.94 0 0 1-.92-.31l-41.23-26.29a2.28 2.28 0 0 1-.71-3 2 2 0 0 1 2.81-.76l41.23 26.29a2.28 2.28 0 0 1 .71 3 2 2 0 0 1-1.89 1.07zM88.25 228.43a2 2 0 0 1-.89-.38l-40.59-31.13a2.29 2.29 0 0 1-.49-3.06 2 2 0 0 1 2.86-.51l40.59 31.13a2.29 2.29 0 0 1 .49 3.06 2 2 0 0 1-1.97.89z"/><path class="cls-35" d="M149.61 164.5l62.58-33.56 2.62-16.82-1.8-1.17-59.02 30.84-4.38 20.71z"/><path class="cls-36" d="M212.37 138.05l-64.44 34.81-4.68 22.46 67.65-35.77 1.47-21.5zM121.44 206.85l6.11-22.98-51.02 27.51 15.15 11.19 29.76-15.72z"/><path class="cls-35" d="M128.68 175.74l5.71-21.71-78.95 41.29 15.61 11.34 57.63-30.92z"/></g><g id="TopRight"><g id="Bases"><path id="Base4-2" class="cls-37" d="M669.82 165.87l-127.44 99.04 23.9 13.52 127.91-101.06-24.37-11.5z"/><path id="Base3-2" class="cls-37" d="M705 183.61l-125.69 102.12 23.75 13.25 126.14-104.17-24.2-11.2z"/><path id="Base2-2" class="cls-38" d="M756.76 207.25l-125.3 109.63 24.47 13.79 125.71-111.8-24.88-11.62z"/><path id="Base-10" class="cls-38" d="M792.71 225.24l-123.45 112.87 24.31 13.51 123.83-115.07-24.69-11.31z"/></g><g id="Highlights-2"><path id="Hightlight4" class="cls-17" d="M616.89 236.98l-28.15-8.06 60.6-47.14 27.97 8.01-60.42 47.19z"/><path id="Hightlight3" class="cls-17" d="M660.92 249.75l-27.45-8.02 58.69-47.69 27.38 7.84-58.62 47.87z"/><path id="Hightlight2" class="cls-39" d="M724.87 267.91l-28.21-8.08 55.55-48.62 14.12 4.06 11.84 5.76-53.3 46.88z"/><path id="Hightlight" class="cls-39" d="M768.6 280.5l-27.69-7.93 49.87-45.57 23.88 11.17-46.06 42.33z"/></g><g id="Sides-2"><path id="Side4-2" class="cls-30" d="M816.27 236.59l1.05.76-123.87 114.27-1.17-1.09 123.99-113.94z"/><path id="Side3-2" class="cls-30" d="M780.5 218.89l1.05.78-125.74 111-1.18-1.1 125.87-110.68z"/><path id="Side2-2" class="cls-30" d="M728.07 194.82l1.02.75-126.14 103.41-1.14-1.05 126.26-103.11z"/><path id="Side-4" class="cls-30" d="M693.06 177.36l1.02.76-127.91 100.31-1.14-1.06 128.03-100.01z"/></g><g id="Bars-2"><path id="ConnectingBar2" class="cls-18" d="M648.26 348.14a2.41 2.41 0 0 0 3.73.34l12.36-13.11c-2.09-.47-3-2.74-5-3.67l-11.13 12.13a2.8 2.8 0 0 0-.64 1.16 3.56 3.56 0 0 0 .68 3.15z"/><path id="ConnectingBar" class="cls-18" d="M559.47 296.12a2.41 2.41 0 0 0 3.73.34l12.36-13.11c-2.09-.47-3-2.74-5-3.67l-11.13 12.13a2.8 2.8 0 0 0-.64 1.16 3.56 3.56 0 0 0 .68 3.15z"/><path id="Bar4" class="cls-18" d="M692.73 353.41a1.91 1.91 0 0 1-.95-.24l-62.34-34.64a2.41 2.41 0 0 1-.95-3.06 2 2 0 0 1 2.78-1l62.34 34.64a2.41 2.41 0 0 1 .95 3.06 2.05 2.05 0 0 1-1.83 1.24z"/><path id="Bar3" class="cls-18" d="M602.18 300.63a2 2 0 0 1-.93-.25l-60.91-34a2.17 2.17 0 0 1-.86-2.89 2 2 0 0 1 2.78-.89l60.91 34a2.17 2.17 0 0 1 .86 2.89 2 2 0 0 1-1.85 1.14z"/><path id="Bar2-2" class="cls-18" d="M818.09 238.51a1.9 1.9 0 0 1-1-.17l-64.25-30.39a2.39 2.39 0 0 1-1.13-3 2 2 0 0 1 2.71-1.22l64.25 30.39a2.39 2.39 0 0 1 1.13 3 2.07 2.07 0 0 1-1.71 1.39z"/><path id="Bar" class="cls-18" d="M729.83 196.67a2 2 0 0 1-.95-.19l-62.93-30.06a2.17 2.17 0 0 1-1-2.83 2 2 0 0 1 2.72-1.07l62.93 30.06a2.17 2.17 0 0 1 1 2.83 2.05 2.05 0 0 1-1.77 1.26z"/></g></g><g id="TopLeft"><g id="Bases-2"><path id="Base4-3" class="cls-34" d="M400.53 39.59l-129.28 72.07 16.05 9.07 128.8-72.67-15.57-8.47z"/><path id="Base3-3" class="cls-34" d="M380 28.4l-129.44 69.31 15.48 9.77 128.84-71.39-14.88-7.69z"/><path id="Base2-3" class="cls-31" d="M326.37 3.49l-125.83 64.52 15.2 9.27 125.25-66.5-14.62-7.29z"/><path id="Base-11" class="cls-31" d="M346.54 14.1l-125.68 67.14 15.76 8.6 125.21-67.7-15.29-8.04z"/></g><g id="Highlights-3"><path id="Hightlight8" class="cls-32" d="M248.04 66.72l20.32 5.96-28.2 15.25-15.89-8.51 23.77-12.7z"/><path id="Hightlight7" class="cls-32" d="M202.34 67.09l16.85-8.64 19.47 5.51-21.86 11.46-14.46-8.33z"/><path id="Hightlight6" class="cls-35" d="M289.61 61.25l-20.35-5.88 54.95-29.42 19.81 5.82-54.41 29.48z"/><path id="Hightlight5" class="cls-35" d="M315.85 23.5l-55.59 29.13-18.84-5.53 56.31-28.92 18.12 5.32z"/><path id="Hightlight4-2" class="cls-35" d="M306.64 83.88l-38.28 20.95-14.77-8.74 33.47-17.92 19.58 5.71z"/><path id="Hightlight3-2" class="cls-36" d="M275.58 109.25l40.27-22.45 19.99 5.68-44.5 25.02-15.76-8.25z"/><path id="Hightlight2-2" class="cls-36" d="M356.38 80.94l-19.68-5.77 53.53-29.84 19.37 5.68-53.22 29.93z"/><path id="h1" class="cls-36" d="M327.62 72.4l-19.25-5.65 54.83-29.35 18.48 5.42-54.06 29.58z"/></g><g id="Sides-3"><path id="Side4-3" class="cls-33" d="M417.55 46.48l2.41 1.76-130.45 73.14-2.72-1.38 130.76-73.52z"/><path id="Side3-3" class="cls-33" d="M394.62 35.67l2.41 1.77-129.1 70.44-2.72-1.38 129.41-70.83z"/><path id="Side2-3" class="cls-33" d="M360.96 22.55l3.88.99-125.67 67.62-2.67-1.32 124.46-67.29z"/><path id="Side-5" class="cls-33" d="M340.73 10.39l2.37 1.68-125.51 65.58-2.67-1.31 125.81-65.95z"/></g><g id="Bars-3"><path id="ConnectingBar2-2" class="cls-18" d="M253.84 117.51a2 2 0 0 0 2.74.82l14.05-7.62a24.23 24.23 0 0 1-4.19-2.34l-11.79 6.39a2 2 0 0 0-.81 2.75z"/><path id="ConnectingBar-2" class="cls-18" d="M204.1 87.38a2 2 0 0 0 2.74.82l14.05-7.62a24.23 24.23 0 0 1-4.19-2.34l-11.79 6.39a2 2 0 0 0-.81 2.75z"/><path id="Bar4-2" class="cls-18" d="M287.73 124a2 2 0 0 1-.92-.29l-41.69-25.23a2.18 2.18 0 0 1-.74-2.92 2 2 0 0 1 2.82-.77l41.68 25.21a2.18 2.18 0 0 1 .74 2.92 2 2 0 0 1-1.89 1.08z"/><path id="Bar3-2" class="cls-18" d="M237 92.93a2 2 0 0 1-.91-.27l-40.89-23.92a2 2 0 0 1 2-3.5l40.93 23.92a2 2 0 0 1-1.13 3.77z"/><path id="Bar2-3" class="cls-18" d="M421 50.83a2 2 0 0 1-.95-.19l-44.05-20.64a2.17 2.17 0 0 1-1-2.83 2 2 0 0 1 2.72-1.07l44 20.61a2.17 2.17 0 0 1 1 2.83 2.05 2.05 0 0 1-1.72 1.29z"/><path id="Bar-2" class="cls-18" d="M365.84 24.71a2 2 0 0 1-.93-.2l-42.66-20.66a2 2 0 0 1 1.75-3.65l42.67 20.65a2 2 0 0 1-.83 3.86z"/></g></g></g><g id="Tail"><path id="Base3-4" class="cls-4" d="M526.53 77.53a1.22 1.22 0 0 0-.36.31c-2.77 2.05-34.77 26.78-34.77 26.78 4.53 9.73 16.32 19.78 24.64 23.48 0 0 26.54-23.31 32.55-28.71a3.12 3.12 0 0 0 .27-.22 8.33 8.33 0 0 0 1.22-1.09c9.08-12.31-8.2-29.79-23.55-20.55z"/><path id="Shadow3" class="cls-13" d="M516.63 127.58l33.37-29.32c5.12-7.26 1-13.26.68-14.49-12.08 9.18-43 32.28-43 32.28s4.39 9.49 8.95 11.53z"/><path id="End2-2" class="cls-1" d="M515.84 128.82c-2.72 2.28-10.43-1.28-17.23-7.95s-10.1-13.93-7.38-16.21 10.43 1.28 17.23 7.95 10.1 13.93 7.38 16.21z"/><path id="Base2-4" class="cls-4" d="M493.59 109.37c-2 1.48-99.22 70.47-99.22 70.47 3.38 7.26 16.36 16.77 22.56 19.53 0 0 91.26-72 94-74.5 1.69-1.56-1-7.18-5.24-10.93-4.4-3.88-10.38-5.84-12.1-4.57z"/><path id="Shadow2-2" class="cls-13" d="M417.73 198.66l94.08-73.32c0-1.19-.38-5.08-4.08-9.29-14.43 12.79-96 73.69-96 73.69s5.57 5.41 6 8.92z"/><path id="End-3" class="cls-1" d="M416.93 199.37c-2.49 1.84-9.56-1-15.79-6.42s-9.26-11.26-6.77-13.1 9.56 1 15.79 6.42 9.27 11.25 6.77 13.1z"/><path id="Base-12" class="cls-40" d="M401 200.74c.77.59 1.52 1.22 2.27 1.83 5-4 8.35-6.66 8.77-7.05 1.26-1.16-.75-5.33-3.89-8.11s-7.7-4.34-9-3.4l-11.06 7.88c4.33 2.87 8.72 5.69 12.91 8.85z"/><path id="Shadow-3" class="cls-13" d="M402.84 202.26l8.93-6.93a4.54 4.54 0 0 0-.48-2.57c-2.08 1.84-5.62 4.73-10 8.23.51.41 1.02.85 1.55 1.27z"/><path id="Highlight3-2" class="cls-14" d="M389.2 192.63l10.17-7c2.54-1.05 6.28.36 8.87 1.93-2.35-2.39-7.33-4.7-9.1-3.51l-11.08 7.87z"/><path id="Highlight2-2" class="cls-14" d="M393.9 179.88l99.32-70.47c2.38-1.61 9.69 1.62 12.7 4.79-3.48-2.12-8.82-2.69-12.25-1.28l-94.25 66.74a6.44 6.44 0 0 0-4-.38 7.38 7.38 0 0 0-1.52.6z"/><path id="Highlight-5" class="cls-14" d="M542.24 76.33a16.92 16.92 0 0 0-15.66 1.17l-.17.13a1.27 1.27 0 0 0-.25.21c-2.77 2.05-34.77 26.69-34.77 26.69.91-.62 2.39-.85 5 0l35.11-26.89a19.1 19.1 0 0 1 10.74-1.31z"/></g><g id="Cross_Beam"><path id="Edge" class="cls-41" d="M661.85 346.31l-11.02 8.67v13.46l11.08-9.47-.06-12.66z"/><path id="Top_side" class="cls-42" d="M188.91 78.24l7.63-2.82 465.31 270.89-11.02 8.67-461.92-276.74z"/><path id="Front_side" class="cls-18" d="M188.91 84.21v-5.97l461.92 276.8v13.4l-461.92-284.23z"/></g></g></svg>